<mxfile host="app.diagrams.net" agent="Mozilla/5.0 (Windows NT 10.0; Win64; x64; rv:136.0) Gecko/20100101 Firefox/136.0" version="26.2.0">
  <diagram name="Trang-1" id="MjeMIbZNlu5Zh1UgtDaN">
    <mxGraphModel dx="2255" dy="751" grid="1" gridSize="10" guides="1" tooltips="1" connect="1" arrows="1" fold="1" page="1" pageScale="1" pageWidth="827" pageHeight="1169" math="0" shadow="0">
      <root>
        <mxCell id="0" />
        <mxCell id="1" parent="0" />
        <mxCell id="LbSnsfPekfrVSXR3aclI-1" value="Thu ngân" style="whiteSpace=wrap;html=1;strokeWidth=1;perimeterSpacing=0;glass=0;shadow=0;container=0;autosize=0;" parent="1" vertex="1">
          <mxGeometry x="-115" y="290" width="120" height="60" as="geometry" />
        </mxCell>
        <mxCell id="LbSnsfPekfrVSXR3aclI-4" value="&lt;u&gt;Tài khoản&lt;/u&gt;" style="ellipse;whiteSpace=wrap;html=1;" parent="1" vertex="1">
          <mxGeometry x="-280" y="240" width="110" height="60" as="geometry" />
        </mxCell>
        <mxCell id="LbSnsfPekfrVSXR3aclI-5" value="Mật khẩu" style="ellipse;whiteSpace=wrap;html=1;" parent="1" vertex="1">
          <mxGeometry x="-110" y="180" width="110" height="60" as="geometry" />
        </mxCell>
        <mxCell id="LbSnsfPekfrVSXR3aclI-11" value="&lt;div&gt;Đơn hàng&lt;/div&gt;" style="rounded=0;whiteSpace=wrap;html=1;gradientColor=none;strokeColor=default;" parent="1" vertex="1">
          <mxGeometry x="490" y="510" width="120" height="60" as="geometry" />
        </mxCell>
        <mxCell id="LbSnsfPekfrVSXR3aclI-12" value="" style="endArrow=none;html=1;rounded=0;exitX=0.5;exitY=0;exitDx=0;exitDy=0;" parent="1" source="LbSnsfPekfrVSXR3aclI-1" target="LbSnsfPekfrVSXR3aclI-5" edge="1">
          <mxGeometry width="50" height="50" relative="1" as="geometry">
            <mxPoint x="60" y="420" as="sourcePoint" />
            <mxPoint x="110" y="370" as="targetPoint" />
          </mxGeometry>
        </mxCell>
        <mxCell id="LbSnsfPekfrVSXR3aclI-15" value="" style="endArrow=none;html=1;rounded=0;entryX=0;entryY=0.367;entryDx=0;entryDy=0;entryPerimeter=0;" parent="1" source="LbSnsfPekfrVSXR3aclI-4" target="LbSnsfPekfrVSXR3aclI-1" edge="1">
          <mxGeometry width="50" height="50" relative="1" as="geometry">
            <mxPoint x="-180.45" y="340" as="sourcePoint" />
            <mxPoint x="-133.45" y="260" as="targetPoint" />
          </mxGeometry>
        </mxCell>
        <mxCell id="LbSnsfPekfrVSXR3aclI-25" value="&lt;u&gt;Mã số&lt;/u&gt;" style="ellipse;whiteSpace=wrap;html=1;" parent="1" vertex="1">
          <mxGeometry x="420" y="350" width="110" height="60" as="geometry" />
        </mxCell>
        <mxCell id="LbSnsfPekfrVSXR3aclI-26" value="Ngày/giờ tạo đơn hàng" style="ellipse;whiteSpace=wrap;html=1;" parent="1" vertex="1">
          <mxGeometry x="550" y="360" width="110" height="60" as="geometry" />
        </mxCell>
        <mxCell id="LbSnsfPekfrVSXR3aclI-27" value="Người phụ trách đơn hàng" style="ellipse;whiteSpace=wrap;html=1;" parent="1" vertex="1">
          <mxGeometry x="680" y="440" width="110" height="60" as="geometry" />
        </mxCell>
        <mxCell id="LbSnsfPekfrVSXR3aclI-28" value="Sản phẩm" style="rounded=0;whiteSpace=wrap;html=1;shadow=0;glass=0;strokeColor=default;strokeWidth=1;align=center;verticalAlign=middle;fontFamily=Helvetica;fontSize=12;fontColor=default;fillColor=default;" parent="1" vertex="1">
          <mxGeometry x="15" y="600" width="120" height="60" as="geometry" />
        </mxCell>
        <mxCell id="LbSnsfPekfrVSXR3aclI-29" value="Tên sản phẩm" style="ellipse;whiteSpace=wrap;html=1;" parent="1" vertex="1">
          <mxGeometry x="-50" y="720" width="110" height="60" as="geometry" />
        </mxCell>
        <mxCell id="LbSnsfPekfrVSXR3aclI-30" value="Giá" style="ellipse;whiteSpace=wrap;html=1;" parent="1" vertex="1">
          <mxGeometry x="220" y="720" width="110" height="60" as="geometry" />
        </mxCell>
        <mxCell id="LbSnsfPekfrVSXR3aclI-31" value="Số lượng" style="ellipse;whiteSpace=wrap;html=1;" parent="1" vertex="1">
          <mxGeometry x="80" y="730" width="110" height="60" as="geometry" />
        </mxCell>
        <mxCell id="LbSnsfPekfrVSXR3aclI-33" value="Tổng tiền" style="ellipse;whiteSpace=wrap;html=1;" parent="1" vertex="1">
          <mxGeometry x="700" y="533" width="110" height="60" as="geometry" />
        </mxCell>
        <mxCell id="LbSnsfPekfrVSXR3aclI-35" value="&lt;u&gt;Mã sản phẩm&lt;/u&gt;" style="ellipse;whiteSpace=wrap;html=1;" parent="1" vertex="1">
          <mxGeometry x="-190" y="690" width="110" height="60" as="geometry" />
        </mxCell>
        <mxCell id="LbSnsfPekfrVSXR3aclI-36" value="" style="endArrow=none;html=1;rounded=0;fontFamily=Helvetica;fontSize=12;fontColor=default;entryX=0.5;entryY=1;entryDx=0;entryDy=0;" parent="1" source="LbSnsfPekfrVSXR3aclI-29" target="LbSnsfPekfrVSXR3aclI-28" edge="1">
          <mxGeometry width="50" height="50" relative="1" as="geometry">
            <mxPoint x="106.63999999999987" y="678.3199999999999" as="sourcePoint" />
            <mxPoint x="430" y="470" as="targetPoint" />
          </mxGeometry>
        </mxCell>
        <mxCell id="LbSnsfPekfrVSXR3aclI-37" value="" style="endArrow=none;html=1;rounded=0;fontFamily=Helvetica;fontSize=12;fontColor=default;entryX=0;entryY=0.75;entryDx=0;entryDy=0;exitX=1;exitY=0.5;exitDx=0;exitDy=0;" parent="1" source="LbSnsfPekfrVSXR3aclI-35" target="LbSnsfPekfrVSXR3aclI-28" edge="1">
          <mxGeometry width="50" height="50" relative="1" as="geometry">
            <mxPoint x="-90" y="730" as="sourcePoint" />
            <mxPoint x="-40" y="680" as="targetPoint" />
          </mxGeometry>
        </mxCell>
        <mxCell id="LbSnsfPekfrVSXR3aclI-38" value="" style="endArrow=none;html=1;rounded=0;fontFamily=Helvetica;fontSize=12;fontColor=default;entryX=1;entryY=0.75;entryDx=0;entryDy=0;exitX=0.297;exitY=0.072;exitDx=0;exitDy=0;exitPerimeter=0;" parent="1" source="LbSnsfPekfrVSXR3aclI-30" target="LbSnsfPekfrVSXR3aclI-28" edge="1">
          <mxGeometry width="50" height="50" relative="1" as="geometry">
            <mxPoint x="209.65999999999985" y="714.3199999999999" as="sourcePoint" />
            <mxPoint x="190" y="640" as="targetPoint" />
          </mxGeometry>
        </mxCell>
        <mxCell id="LbSnsfPekfrVSXR3aclI-39" value="" style="endArrow=none;html=1;rounded=0;fontFamily=Helvetica;fontSize=12;fontColor=default;entryX=0.012;entryY=0.661;entryDx=0;entryDy=0;exitX=0.933;exitY=0.006;exitDx=0;exitDy=0;entryPerimeter=0;exitPerimeter=0;" parent="1" source="LbSnsfPekfrVSXR3aclI-11" target="LbSnsfPekfrVSXR3aclI-27" edge="1">
          <mxGeometry width="50" height="50" relative="1" as="geometry">
            <mxPoint x="620" y="500" as="sourcePoint" />
            <mxPoint x="635" y="440" as="targetPoint" />
          </mxGeometry>
        </mxCell>
        <mxCell id="LbSnsfPekfrVSXR3aclI-40" value="" style="endArrow=none;html=1;rounded=0;fontFamily=Helvetica;fontSize=12;fontColor=default;entryX=0.5;entryY=1;entryDx=0;entryDy=0;exitX=0.75;exitY=0;exitDx=0;exitDy=0;" parent="1" source="LbSnsfPekfrVSXR3aclI-11" target="LbSnsfPekfrVSXR3aclI-26" edge="1">
          <mxGeometry width="50" height="50" relative="1" as="geometry">
            <mxPoint x="550" y="460.34000000000003" as="sourcePoint" />
            <mxPoint x="611" y="440.34000000000003" as="targetPoint" />
          </mxGeometry>
        </mxCell>
        <mxCell id="LbSnsfPekfrVSXR3aclI-41" value="" style="endArrow=none;html=1;rounded=0;fontFamily=Helvetica;fontSize=12;fontColor=default;entryX=0.5;entryY=1;entryDx=0;entryDy=0;exitX=0;exitY=0.25;exitDx=0;exitDy=0;" parent="1" source="LbSnsfPekfrVSXR3aclI-11" target="LbSnsfPekfrVSXR3aclI-25" edge="1">
          <mxGeometry width="50" height="50" relative="1" as="geometry">
            <mxPoint x="420" y="500" as="sourcePoint" />
            <mxPoint x="435" y="440" as="targetPoint" />
          </mxGeometry>
        </mxCell>
        <mxCell id="LbSnsfPekfrVSXR3aclI-42" value="" style="endArrow=none;html=1;rounded=0;fontFamily=Helvetica;fontSize=12;fontColor=default;entryX=0;entryY=0;entryDx=0;entryDy=0;exitX=1;exitY=1;exitDx=0;exitDy=0;" parent="1" source="LbSnsfPekfrVSXR3aclI-11" target="LbSnsfPekfrVSXR3aclI-33" edge="1">
          <mxGeometry width="50" height="50" relative="1" as="geometry">
            <mxPoint x="630" y="584.34" as="sourcePoint" />
            <mxPoint x="691" y="564.34" as="targetPoint" />
          </mxGeometry>
        </mxCell>
        <mxCell id="LbSnsfPekfrVSXR3aclI-43" value="" style="endArrow=none;html=1;rounded=0;fontFamily=Helvetica;fontSize=12;fontColor=default;entryX=0.75;entryY=1;entryDx=0;entryDy=0;exitX=0.5;exitY=0;exitDx=0;exitDy=0;" parent="1" source="LbSnsfPekfrVSXR3aclI-31" target="LbSnsfPekfrVSXR3aclI-28" edge="1">
          <mxGeometry width="50" height="50" relative="1" as="geometry">
            <mxPoint x="168" y="739" as="sourcePoint" />
            <mxPoint x="50" y="660" as="targetPoint" />
          </mxGeometry>
        </mxCell>
        <mxCell id="LbSnsfPekfrVSXR3aclI-45" value="Tính tiền" style="rhombus;whiteSpace=wrap;html=1;shadow=0;glass=0;strokeColor=default;strokeWidth=1;align=center;verticalAlign=middle;fontFamily=Helvetica;fontSize=12;fontColor=default;fillColor=default;" parent="1" vertex="1">
          <mxGeometry x="205" y="290" width="110" height="120" as="geometry" />
        </mxCell>
        <mxCell id="LbSnsfPekfrVSXR3aclI-46" value="" style="shape=link;endArrow=classic;startArrow=classic;html=1;rounded=0;fontFamily=Helvetica;fontSize=12;fontColor=default;width=6;entryX=0;entryY=0;entryDx=0;entryDy=0;" parent="1" source="LbSnsfPekfrVSXR3aclI-45" target="LbSnsfPekfrVSXR3aclI-11" edge="1">
          <mxGeometry width="100" height="100" relative="1" as="geometry">
            <mxPoint x="290" y="450" as="sourcePoint" />
            <mxPoint x="482" y="526" as="targetPoint" />
          </mxGeometry>
        </mxCell>
        <mxCell id="LbSnsfPekfrVSXR3aclI-47" value="N" style="text;html=1;align=center;verticalAlign=middle;resizable=0;points=[];autosize=1;strokeColor=none;fillColor=none;fontFamily=Helvetica;fontSize=12;fontColor=default;" parent="1" vertex="1">
          <mxGeometry x="315" y="350" width="30" height="30" as="geometry" />
        </mxCell>
        <mxCell id="LbSnsfPekfrVSXR3aclI-48" value="1" style="text;html=1;align=center;verticalAlign=middle;resizable=0;points=[];autosize=1;strokeColor=none;fillColor=none;fontFamily=Helvetica;fontSize=12;fontColor=default;" parent="1" vertex="1">
          <mxGeometry x="175" y="320" width="30" height="30" as="geometry" />
        </mxCell>
        <mxCell id="LbSnsfPekfrVSXR3aclI-49" value="" style="endArrow=none;html=1;rounded=0;fontFamily=Helvetica;fontSize=12;fontColor=default;exitX=0.975;exitY=0.639;exitDx=0;exitDy=0;exitPerimeter=0;entryX=0;entryY=0.5;entryDx=0;entryDy=0;" parent="1" source="LbSnsfPekfrVSXR3aclI-1" target="LbSnsfPekfrVSXR3aclI-45" edge="1">
          <mxGeometry width="50" height="50" relative="1" as="geometry">
            <mxPoint x="380" y="520" as="sourcePoint" />
            <mxPoint x="430" y="470" as="targetPoint" />
          </mxGeometry>
        </mxCell>
        <mxCell id="LbSnsfPekfrVSXR3aclI-50" value="Work_on" style="rhombus;whiteSpace=wrap;html=1;shadow=0;glass=0;strokeColor=default;strokeWidth=1;align=center;verticalAlign=middle;fontFamily=Helvetica;fontSize=12;fontColor=default;fillColor=default;" parent="1" vertex="1">
          <mxGeometry x="265" y="545" width="80" height="80" as="geometry" />
        </mxCell>
        <mxCell id="LbSnsfPekfrVSXR3aclI-52" value="" style="endArrow=none;html=1;rounded=0;fontFamily=Helvetica;fontSize=12;fontColor=default;exitX=1;exitY=0.5;exitDx=0;exitDy=0;entryX=0;entryY=1;entryDx=0;entryDy=0;shape=link;" parent="1" source="LbSnsfPekfrVSXR3aclI-50" target="LbSnsfPekfrVSXR3aclI-11" edge="1">
          <mxGeometry width="50" height="50" relative="1" as="geometry">
            <mxPoint x="360" y="520" as="sourcePoint" />
            <mxPoint x="410" y="470" as="targetPoint" />
          </mxGeometry>
        </mxCell>
        <mxCell id="LbSnsfPekfrVSXR3aclI-53" value="M" style="text;html=1;align=center;verticalAlign=middle;resizable=0;points=[];autosize=1;strokeColor=none;fillColor=none;fontFamily=Helvetica;fontSize=12;fontColor=default;" parent="1" vertex="1">
          <mxGeometry x="335" y="548" width="30" height="30" as="geometry" />
        </mxCell>
        <mxCell id="LbSnsfPekfrVSXR3aclI-54" value="N" style="text;html=1;align=center;verticalAlign=middle;resizable=0;points=[];autosize=1;strokeColor=none;fillColor=none;fontFamily=Helvetica;fontSize=12;fontColor=default;" parent="1" vertex="1">
          <mxGeometry x="235" y="548" width="30" height="30" as="geometry" />
        </mxCell>
        <mxCell id="LbSnsfPekfrVSXR3aclI-56" value="" style="endArrow=none;html=1;rounded=0;fontFamily=Helvetica;fontSize=12;fontColor=default;exitX=1;exitY=0.25;exitDx=0;exitDy=0;entryX=0;entryY=0.5;entryDx=0;entryDy=0;" parent="1" source="LbSnsfPekfrVSXR3aclI-28" target="LbSnsfPekfrVSXR3aclI-50" edge="1">
          <mxGeometry width="50" height="50" relative="1" as="geometry">
            <mxPoint x="360" y="520" as="sourcePoint" />
            <mxPoint x="410" y="470" as="targetPoint" />
          </mxGeometry>
        </mxCell>
      </root>
    </mxGraphModel>
  </diagram>
</mxfile>
